<svg width="280" height="280" viewBox="0 0 280 280" fill="none" xmlns="http://www.w3.org/2000/svg">
<path d="M60 180C60 184.715 61.873 189.237 65.207 192.571C68.541 195.905 73.0628 197.778 77.7778 197.778H202.222C206.937 197.778 211.459 195.905 214.793 192.571C218.127 189.237 220 184.715 220 180V162.222H60V180Z" fill="#EA2839"/>
<path d="M60 117.778H220V162.222H60V117.778Z" fill="#34B232"/>
<path d="M202.222 82.2222H77.7778C73.0628 82.2222 68.541 84.0952 65.207 87.4292C61.873 90.7632 60 95.285 60 100V117.778H220V100C220 95.285 218.127 90.7632 214.793 87.4292C211.459 84.0952 206.937 82.2222 202.222 82.2222Z" fill="#FECB01"/>
<path d="M140 98.9333L150.458 131.111H184.293L156.92 150.369L167.373 182.231L140 162.187L112.626 182L123.084 150.413L95.7109 131.111H129.546L140 98.9333Z" fill="white"/>
</svg>
